<svg width="48" height="48" viewBox="0 0 48 48" fill="none" xmlns="http://www.w3.org/2000/svg">
<path d="M26.8144 12.7725C27.0531 12.7725 27.1923 12.612 27.2321 12.3913C27.8488 9.06019 27.8288 8.97988 31.2699 8.29767C31.5085 8.25751 31.6478 8.13713 31.6478 7.89629C31.6478 7.63541 31.5085 7.51503 31.2699 7.47487C27.8288 6.77254 27.8488 6.71235 27.2321 3.38126C27.1923 3.16054 27.0531 3 26.8144 3C26.5758 3 26.4564 3.16054 26.4166 3.38126C25.7801 6.71235 25.8199 6.77254 22.3589 7.47487C22.1402 7.51503 21.981 7.63541 21.981 7.89629C21.981 8.13713 22.1402 8.25751 22.3589 8.29767C25.8398 8.97988 25.7801 9.06019 26.4166 12.3913C26.4564 12.612 26.5758 12.7725 26.8144 12.7725ZM36.342 26.3378C36.7001 26.3378 36.9586 26.0769 36.9984 25.6957C37.6547 20.2977 37.8735 20.2174 43.3038 19.3143C43.7413 19.2341 44 19.0334 44 18.6321C44 18.2508 43.7413 18.01 43.3833 17.9498C37.8735 17.0066 37.6547 16.9665 36.9984 11.5686C36.9586 11.1872 36.7001 10.9264 36.342 10.9264C35.964 10.9264 35.7055 11.1872 35.6657 11.5484C34.9696 16.9465 34.8104 17.0066 29.2809 17.9498C28.9228 18.01 28.6642 18.2508 28.6642 18.6321C28.6642 19.0134 28.9228 19.2341 29.2809 19.3143C34.8104 20.2174 35.0094 20.2977 35.6657 25.7358C35.7055 26.0769 35.964 26.3378 36.342 26.3378ZM21.3843 45C28.6642 45 34.5518 41.3077 37.237 35.0268C37.5951 34.1639 37.4757 33.5016 37.0978 33.1003C36.7398 32.7592 36.1431 32.6789 35.4271 32.9599C33.9353 33.5619 32.1053 33.903 29.8179 33.903C20.9268 33.903 15.1984 28.3043 15.1984 19.495C15.1984 17.0668 15.6559 14.6588 16.2724 13.3946C16.6703 12.592 16.6305 11.9097 16.2924 11.4883C15.9145 11.0468 15.2382 10.9063 14.3033 11.2876C8.19689 13.7959 4 20.2174 4 27.7224C4 37.495 11.1208 45 21.3843 45ZM21.4241 41.9498C12.9309 41.9498 7.02336 35.7091 7.02336 27.4816C7.02336 22.4248 9.35056 17.9699 13.0501 15.1204C12.5728 16.4247 12.2944 18.4314 12.2944 20.3579C12.2944 30.2307 19.0571 36.8528 29.0621 36.8528C30.8522 36.8528 32.4832 36.6321 33.3187 36.3311C30.8323 39.8027 26.3967 41.9498 21.4241 41.9498Z" fill="white"/>
</svg>
