<svg width="48" height="48" viewBox="0 0 48 48" fill="none" xmlns="http://www.w3.org/2000/svg">
<path d="M0 31.1934C0 28.661 0.773125 26.4342 2.34146 24.4694C3.9098 22.5045 5.91993 21.2602 8.39393 20.7144C8.90198 18.4657 9.94017 16.5009 11.4864 14.8199C13.0327 13.1389 14.9103 11.9381 17.075 11.2177C18.4445 10.7592 19.8583 10.5191 21.3382 10.5191C23.1275 10.5191 24.8725 10.8684 26.5292 11.567C27.1477 10.5409 27.8767 9.64585 28.7161 8.90358C29.5555 8.16131 30.4169 7.57186 31.3005 7.1789C32.1841 6.78593 33.0676 6.48029 33.907 6.28381C34.7464 6.08732 35.5858 6 36.381 6C37.2204 6 38.1261 6.10916 39.098 6.3493L40.9093 6.89509C41.2186 7.02608 41.3069 7.1789 41.2186 7.37538L40.9093 8.68526C40.7547 9.36204 40.6884 9.99515 40.6884 10.5628C40.6884 11.2395 40.7989 11.9381 41.0198 12.6367C41.2407 13.3354 41.5499 14.0121 41.9917 14.6889C42.4114 15.3657 43.0078 15.9551 43.7589 16.5009C44.5099 17.0467 45.3493 17.4615 46.2991 17.7453L47.6687 18.2256C47.8896 18.2911 48 18.4002 48 18.5749C48 18.6186 47.9779 18.6622 47.9558 18.7277L47.5582 20.1904C46.9618 22.5482 45.8352 24.4039 44.2448 25.8011C45.1284 27.3293 45.6144 28.9666 45.6806 30.6913C45.7027 30.8005 45.7027 30.9533 45.7027 31.1934C45.7027 33.1364 45.2167 34.9484 44.2227 36.6076C43.2508 38.2668 41.9034 39.5767 40.2467 40.5373C38.5679 41.4979 36.7345 42 34.7685 42H10.89C8.92407 42 7.09066 41.5197 5.41187 40.5373C3.73309 39.5549 2.42982 38.245 1.45789 36.6076C0.485965 34.9703 0 33.1583 0 31.1934ZM3.77727 31.1934C3.77727 33.1364 4.48412 34.8175 5.89784 36.2365C7.31155 37.6555 8.96825 38.376 10.89 38.376H34.7685C36.7345 38.376 38.4133 37.6774 39.8049 36.2583C41.1965 34.8393 41.9034 33.1583 41.9034 31.1934C41.9034 29.2723 41.1965 27.6349 39.7828 26.2596C38.3691 24.8842 36.6903 24.1856 34.7464 24.1856H30.8145L30.5936 22.5482C30.3728 20.3432 29.445 18.4439 27.8104 16.8939C26.1758 15.3438 24.2319 14.4706 22.0009 14.2741C21.9347 14.2741 21.8242 14.2741 21.6696 14.2523C21.515 14.2304 21.4266 14.2304 21.3382 14.2304C20.2117 14.2304 19.0851 14.4488 17.9365 14.8636V14.8199C16.324 15.4312 14.9544 16.4354 13.8721 17.8108C12.7676 19.1862 12.1049 20.758 11.884 22.5482L11.7294 24.1201L10.2273 24.1856C8.37184 24.4039 6.82559 25.168 5.58859 26.4997C4.35159 27.8314 3.77727 29.3814 3.77727 31.1934ZM29.7322 13.4882C32.0736 15.4748 33.5315 17.789 34.0838 20.4306H34.7906C37.5297 20.4306 39.8711 21.282 41.7929 23.0067C42.5219 22.3299 43.0741 21.544 43.4717 20.6707C41.4616 19.732 39.8711 18.2911 38.7004 16.3699C37.5518 14.4488 36.9554 12.4184 36.9554 10.3008V9.77683C36.8449 9.755 36.6682 9.755 36.4252 9.755C35.144 9.73317 33.885 10.0388 32.67 10.7156C31.4551 11.3705 30.4611 12.2874 29.7322 13.4882Z" fill="white"/>
</svg>
