<svg width="48" height="48" viewBox="0 0 48 48" fill="none" xmlns="http://www.w3.org/2000/svg">
<path d="M0 22.7159C0 20.0788 0.833574 17.7398 2.50072 15.676C4.16787 13.6122 6.27496 12.3051 8.822 11.7089C9.5398 8.59023 11.1838 6.02193 13.7077 4.00399C16.2315 1.98604 19.1259 1 22.3907 1C25.5861 1 28.411 1.98604 30.9117 3.93519C33.4124 5.88435 35.0333 8.40678 35.7742 11.4796H36.5152C38.576 11.4796 40.4978 11.984 42.2576 12.9701C44.0174 13.9561 45.4298 15.332 46.4486 17.0518C47.4674 18.7717 48 20.675 48 22.7159C48 24.7338 47.5137 26.5912 46.5412 28.3111C45.5687 30.0309 44.2258 31.4068 42.5355 32.4387C40.8451 33.4706 38.9928 34.0209 36.9783 34.0668C36.6773 34.0668 36.5152 33.9292 36.5152 33.677V30.6271C36.5152 30.3519 36.6773 30.2144 36.9783 30.2144C38.9465 30.1226 40.6368 29.343 42.026 27.8754C43.4153 26.4078 44.11 24.6879 44.11 22.6929C44.11 20.6979 43.3459 18.9781 41.8408 17.5105C40.3357 16.0429 38.5528 15.3091 36.492 15.3091H32.7641C32.4863 15.3091 32.3473 15.1715 32.3473 14.9192L32.1621 13.5892C31.9074 11.1127 30.8191 9.02592 28.9436 7.37488C27.0449 5.7009 24.8683 4.87537 22.3444 4.87537C19.8205 4.87537 17.5977 5.7009 15.7453 7.37488C13.8698 9.04885 12.8278 11.1127 12.5962 13.5892L12.4342 14.8046C12.4342 15.0798 12.2721 15.2403 11.9711 15.2403L10.7438 15.3091C8.822 15.5384 7.20116 16.3639 5.88133 17.7627C4.5615 19.1615 3.91317 20.8126 3.91317 22.7159C3.91317 24.7109 4.60781 26.4307 5.99711 27.8983C7.3864 29.3659 9.0767 30.1456 11.0449 30.2373C11.2996 30.2373 11.4385 30.3749 11.4385 30.6501V33.6999C11.4385 33.9521 11.2996 34.0897 11.0449 34.0897C7.94211 33.9521 5.32562 32.7827 3.17221 30.5813C1.01881 28.3799 0 25.7657 0 22.7159ZM12.3878 38.0568C12.3878 37.9651 12.411 37.8046 12.4805 37.5982L16.2547 24.3669C16.3936 23.9312 16.6483 23.5872 16.9957 23.3579C17.343 23.1286 17.7135 23.014 18.0608 23.014C18.2229 23.014 18.4081 23.0369 18.6165 23.0827C19.1722 23.1745 19.589 23.4726 19.8669 23.9312C20.1447 24.3898 20.2142 24.8943 20.0521 25.4676L16.2779 38.6072C16 39.5932 15.3517 40.0748 14.3792 40.0748C14.2865 40.0748 14.2171 40.0518 14.1245 40.0289C13.9855 39.983 13.9161 39.9601 13.8929 39.9601C13.3835 39.8225 13.013 39.5703 12.7583 39.2034C12.5036 38.8136 12.3878 38.4467 12.3878 38.0568ZM18.4544 44.5005L24.1042 24.3898C24.1968 23.9541 24.4284 23.6102 24.7988 23.3809C25.1693 23.1515 25.5398 23.0369 25.9334 23.0369C26.1418 23.0369 26.3502 23.0598 26.5586 23.1057C27.068 23.2433 27.4385 23.5414 27.6932 24C27.9479 24.4586 27.9942 24.9402 27.8553 25.4676L22.2287 45.6012C22.136 45.991 21.9276 46.3121 21.5572 46.5872C21.1867 46.8624 20.8162 47 20.3763 47C20.1679 47 19.9595 46.9541 19.7974 46.8853C19.3343 46.7707 18.9407 46.4726 18.5933 45.991C18.3386 45.5783 18.2923 45.0967 18.4544 44.5005ZM28.0174 38.1027C28.0174 38.011 28.0405 37.8504 28.11 37.5753L31.8842 24.344C32.0232 23.9083 32.2547 23.5643 32.5789 23.335C32.9262 23.1057 33.2735 22.991 33.644 22.991C33.8292 22.991 34.0376 23.014 34.246 23.0598C34.7323 23.1974 35.0796 23.4267 35.3111 23.7707C35.5427 24.1147 35.6585 24.4816 35.6585 24.8485C35.6585 24.9172 35.6353 25.0319 35.6122 25.1695C35.589 25.3071 35.5658 25.3988 35.5658 25.4447L31.7916 38.5842C31.699 39.0199 31.4906 39.3868 31.1433 39.6391C30.7959 39.8913 30.4023 40.0289 29.9624 40.0289L29.4067 39.9143C28.9436 39.7767 28.5962 39.5474 28.3415 39.1805C28.1331 38.8365 28.0174 38.4696 28.0174 38.1027Z" fill="white"/>
</svg>
