<svg width="48" height="48" viewBox="0 0 48 48" fill="none" xmlns="http://www.w3.org/2000/svg">
<path d="M0 22.596C0 25.13 0.764478 27.3901 2.29344 29.3762C3.82239 31.3623 5.79151 32.732 8.22394 33.4625L6.71815 37.2978C6.64865 37.6174 6.76448 37.8 7.04247 37.8H11.9768L9.56757 46.4293H10.2162L19.4131 34.5126C19.5058 34.4213 19.5058 34.3072 19.4595 34.193C19.4131 34.0789 19.2973 34.0332 19.1351 34.0332H14.0849L19.8301 23.4407C19.9691 23.1211 19.8764 22.9613 19.5058 22.9613H12.695C12.4865 22.9613 12.3012 23.0754 12.1853 23.2809L9.66023 29.8328C8.01544 29.4218 6.64865 28.5315 5.55985 27.1846C4.47104 25.8377 3.93822 24.3082 3.93822 22.596C3.93822 20.7012 4.58687 19.0576 5.88417 17.665C7.18147 16.2725 8.80309 15.4734 10.749 15.2452L11.9537 15.0854C12.2548 15.0854 12.417 14.9484 12.417 14.6973L12.5792 13.5102C12.8108 11.0447 13.8533 8.96725 15.7297 7.30074C17.6062 5.63424 19.8069 4.78958 22.332 4.78958C24.8571 4.78958 27.0579 5.63424 28.9344 7.30074C30.834 8.96725 31.8996 11.0447 32.1776 13.5102L32.3166 14.8342C32.3166 15.1082 32.4556 15.2452 32.7568 15.2452H36.4865C38.5946 15.2452 40.3784 15.9757 41.861 17.4139C43.3436 18.8521 44.0849 20.5871 44.0849 22.6189C44.0849 24.5593 43.39 26.2486 42.0232 27.664C40.6564 29.0794 38.9652 29.8556 36.9498 30.0154C36.6486 30.0154 36.4865 30.1524 36.4865 30.4491V33.5767C36.4865 33.8278 36.6486 33.9648 36.9498 33.9648C38.4556 33.9191 39.8919 33.5767 41.2587 32.9603C42.6255 32.3439 43.8069 31.5221 44.7799 30.5176C45.7529 29.5131 46.5405 28.3261 47.1197 26.9335C47.6988 25.5638 48 24.1256 48 22.6417C48 20.5871 47.4903 18.6923 46.4479 16.9573C45.4054 15.2223 44.0154 13.8526 42.2548 12.8481C40.4942 11.8437 38.5714 11.3414 36.5096 11.3414H35.7683C35.0039 8.30521 33.3822 5.81687 30.8803 3.89926C28.3784 1.98164 25.5521 1 22.3552 1C19.0888 1 16.1699 2.00447 13.6448 3.99057C11.1197 5.97668 9.49807 8.5335 8.77992 11.661C6.23166 12.2546 4.12355 13.5558 2.4556 15.6104C0.787645 17.665 0 19.9707 0 22.596ZM18.9035 45.1052C18.9035 45.4705 19.0193 45.8129 19.251 46.1553C19.4826 46.4978 19.8533 46.7489 20.3166 46.8858C20.6409 46.9543 20.8263 47 20.8958 47C21.1042 47 21.3822 46.9315 21.7761 46.7717C22.2625 46.5662 22.5869 46.1553 22.749 45.5846L23.3977 43.1876C23.5367 42.6854 23.4903 42.2059 23.2124 41.7494C22.9344 41.2928 22.5405 40.996 21.9846 40.8362C21.4749 40.6993 20.9884 40.7449 20.5251 41.0189C20.0618 41.2928 19.7375 41.6809 19.5753 42.2288L18.9498 44.5117C18.9266 44.8998 18.9035 45.1052 18.9035 45.1052ZM22.0077 34.2159C22.0077 34.5355 22.1236 34.8779 22.3552 35.2203C22.5869 35.5628 22.9344 35.8139 23.3977 35.9737C23.9073 36.1335 24.417 36.1107 24.8803 35.8595C25.3436 35.6084 25.6448 35.2203 25.8069 34.6725L26.5019 32.2983C26.6409 31.796 26.5714 31.3166 26.3166 30.86C26.0386 30.4035 25.6216 30.0839 25.0888 29.9241C24.556 29.7871 24.0695 29.8328 23.583 30.1067C23.0965 30.3806 22.7954 30.7687 22.6332 31.2938L22.0772 33.5995C22.0309 33.9876 22.0077 34.193 22.0077 34.2159ZM28.5405 37.9826C28.5405 38.3707 28.6564 38.7588 28.9112 39.1469C29.166 39.535 29.5367 39.7861 30 39.9459C30.0463 39.9459 30.139 39.9687 30.278 39.9916C30.3938 40.0144 30.4865 40.0372 30.556 40.0372C30.8571 40.0372 31.1583 39.9916 31.4363 39.8546C31.8764 39.6948 32.2008 39.261 32.3861 38.5533L32.9653 36.2476C33.1274 35.7226 33.0811 35.2203 32.8263 34.7409C32.5714 34.2615 32.1776 33.9419 31.668 33.7821C31.0888 33.6452 30.556 33.7136 30.0927 33.9648C29.6293 34.2387 29.3282 34.6496 29.2355 35.1747L28.61 37.5261C28.5637 37.663 28.5405 37.8228 28.5405 37.9826ZM31.6911 27.0476C31.668 27.4129 31.7838 27.7553 32.0386 28.1206C32.2934 28.4859 32.6641 28.7598 33.1737 28.9881C33.3591 29.0794 33.5444 29.1251 33.7761 29.1251C34.0309 29.1251 34.2857 29.0566 34.5637 28.9424C35.0502 28.7141 35.3745 28.2804 35.583 27.6412L36.2548 25.2898C36.3012 24.9931 36.3243 24.8333 36.3243 24.7876C36.3243 24.3995 36.2085 24.0342 35.9537 23.669C35.6988 23.3037 35.3282 23.0526 34.8185 22.9156C34.7722 22.9156 34.6795 22.8928 34.5637 22.87C34.4247 22.8015 34.332 22.8015 34.2625 22.8015C33.8687 22.8015 33.4981 22.9156 33.1274 23.1439C32.7568 23.3722 32.5019 23.7375 32.3629 24.2397L31.7375 26.5454C31.7143 26.728 31.6911 26.8878 31.6911 27.0476Z" fill="white"/>
</svg>
