<svg width="48" height="48" viewBox="0 0 48 48" fill="none" xmlns="http://www.w3.org/2000/svg">
<path d="M0 33.4208C0 32.9555 0.155152 32.5485 0.484848 32.2383C0.814545 31.9282 1.22182 31.7731 1.70667 31.7731H37.9152C38.4 31.7731 38.7879 31.9282 39.0982 32.2383C39.4085 32.5485 39.5636 32.9361 39.5636 33.4208C39.5636 33.8666 39.4085 34.2543 39.0788 34.545C38.7491 34.8552 38.3612 34.9909 37.9152 34.9909H1.70667C1.22182 34.9909 0.814545 34.8358 0.484848 34.545C0.155152 34.2349 0 33.8666 0 33.4208ZM5.08121 27.3341C5.08121 26.8689 5.25576 26.4812 5.58545 26.171C5.87636 25.8803 6.26424 25.7252 6.7297 25.7252H42.9382C43.3842 25.7252 43.7527 25.8803 44.063 26.1904C44.3733 26.5006 44.5091 26.8689 44.5091 27.3341C44.5091 27.7993 44.3539 28.187 44.063 28.4972C43.7527 28.8267 43.3842 28.9818 42.9382 28.9818H6.7297C6.26424 28.9818 5.87636 28.8267 5.56606 28.4972C5.23636 28.1676 5.08121 27.7799 5.08121 27.3341ZM5.33333 22.7013C5.33333 22.8757 5.4303 22.9533 5.62424 22.9533H8.39758C8.51394 22.9533 8.6497 22.8563 8.78546 22.6431C9.25091 21.6351 9.9297 20.821 10.8412 20.1813C11.7527 19.5416 12.7612 19.1733 13.8473 19.0958L14.9139 18.9601C15.1273 18.9601 15.2436 18.8438 15.2436 18.6112L15.3794 17.642C15.5927 15.5485 16.4655 13.8039 18.0364 12.4082C19.6073 11.0125 21.4497 10.3147 23.5636 10.3147C25.6582 10.3147 27.4812 11.0125 29.0521 12.3888C30.6036 13.7651 31.4958 15.5097 31.7091 17.5838L31.8642 18.6887C31.8642 18.9019 32 19.0182 32.2521 19.0182H35.3358C36.577 19.0182 37.7212 19.3478 38.7491 20.0262C39.777 20.7047 40.5333 21.577 41.0376 22.6819C41.1733 22.8951 41.3091 22.992 41.4448 22.992H44.2182C44.4509 22.992 44.5479 22.8563 44.4897 22.5462C43.9273 20.569 42.783 18.9407 41.1152 17.6807C39.4279 16.4208 37.5079 15.8005 35.3552 15.8005H34.7345C34.0945 13.2223 32.737 11.1095 30.6618 9.4618C28.5867 7.81414 26.24 7 23.583 7C20.8679 7 18.463 7.85291 16.3491 9.55872C14.2352 11.2645 12.897 13.4356 12.2958 16.0718C10.6473 16.4595 9.19273 17.2349 7.95152 18.4173C6.7103 19.5998 5.83758 20.9954 5.35273 22.6431V22.5656C5.33333 22.5656 5.33333 22.6237 5.33333 22.7013ZM8.45576 39.3523C8.45576 38.8871 8.6303 38.5188 8.96 38.2087C9.25091 37.9179 9.63879 37.7628 10.1236 37.7628H46.3515C46.817 37.7628 47.2048 37.9179 47.5152 38.2087C47.8448 38.5188 48 38.8871 48 39.333C48 39.7982 47.8448 40.1859 47.5152 40.5154C47.1855 40.8449 46.7976 41 46.3515 41H10.1236C9.67758 41 9.2897 40.8255 8.96 40.496C8.6303 40.2052 8.45576 39.7982 8.45576 39.3523Z" fill="white"/>
</svg>
