<svg fill="none" height="48" viewBox="0 0 48 48" width="48" xmlns="http://www.w3.org/2000/svg"><g clip-rule="evenodd" fill="#fff" fill-rule="evenodd"><path d="m10.5 12c0-.8284.6716-1.5 1.5-1.5h24c.8284 0 1.5.6716 1.5 1.5 0 5.2244-2.9677 9.7557-7.3092 12 4.3415 2.2443 7.3092 6.7756 7.3092 12 0 .8284-.6716 1.5-1.5 1.5h-24c-.8284 0-1.5-.6716-1.5-1.5 0-5.2244 2.9677-9.7557 7.3092-12-4.3415-2.2443-7.3092-6.7756-7.3092-12zm13.5 13.5c-5.2897 0-9.6658 3.9116-10.3937 9h20.7874c-.7279-5.0884-5.104-9-10.3937-9zm-10.3937-12c.7279 5.0884 5.104 9 10.3937 9s9.6658-3.9116 10.3937-9z"/><path d="m10.5 6c0-.82843.6716-1.5 1.5-1.5h24c.8284 0 1.5.67157 1.5 1.5s-.6716 1.5-1.5 1.5h-24c-.8284 0-1.5-.67157-1.5-1.5z"/><path d="m10.5 42c0-.8284.6716-1.5 1.5-1.5h24c.8284 0 1.5.6716 1.5 1.5s-.6716 1.5-1.5 1.5h-24c-.8284 0-1.5-.6716-1.5-1.5z"/></g></svg>