<svg width="48" height="48" viewBox="0 0 48 48" fill="none" xmlns="http://www.w3.org/2000/svg">
<path d="M0 23.4779C0 22.9473 0.180791 22.4831 0.564972 22.1072C0.949152 21.7535 1.42373 21.5767 1.9209 21.5767H6.53107C7.05085 21.5767 7.48023 21.7535 7.84181 22.1294C8.18079 22.5052 8.36158 22.9473 8.36158 23.4779C8.36158 24.0085 8.20339 24.4506 7.86441 24.8264C7.52542 25.2023 7.07345 25.3791 6.55367 25.3791H1.9435C1.42373 25.3791 0.971752 25.2023 0.587571 24.8264C0.20339 24.4506 0 24.0085 0 23.4779ZM6.46328 38.7982C6.46328 38.2897 6.64407 37.8476 6.98305 37.4497L10.3051 34.2883C10.6441 33.9346 11.096 33.7799 11.6384 33.7799C12.1808 33.7799 12.6328 33.9567 12.9943 34.2883C13.3559 34.6199 13.5367 35.04 13.5367 35.5484C13.5367 36.079 13.3559 36.5654 12.9943 36.9633L9.78531 40.1025C8.85876 40.81 7.9322 40.81 7.00565 40.1025C6.64407 39.7488 6.46328 39.3067 6.46328 38.7982ZM6.46328 8.20179C6.46328 7.69332 6.64407 7.25118 6.98305 6.85325C7.43503 6.47742 7.9096 6.30056 8.42938 6.30056C8.92655 6.30056 9.37853 6.47742 9.76271 6.83114L12.9943 10.0809C13.3559 10.4125 13.5367 10.8547 13.5367 11.3852C13.5367 11.9158 13.3559 12.3579 12.9943 12.7117C12.6328 13.0654 12.1808 13.2422 11.6384 13.2422C11.096 13.2422 10.6441 13.0654 10.3051 12.7117L7.00565 9.55033C6.64407 9.19661 6.46328 8.73236 6.46328 8.20179ZM12.226 23.4779C12.226 21.4219 12.7458 19.4986 13.8079 17.73C14.8701 15.9614 16.2938 14.5466 18.1243 13.5075C19.9548 12.4685 21.8983 11.96 24 11.96C25.5819 11.96 27.096 12.2695 28.565 12.8885C30.0113 13.5075 31.2768 14.3255 32.3164 15.3645C33.3785 16.4036 34.2147 17.6195 34.8249 19.0343C35.435 20.4492 35.7514 21.9525 35.7514 23.5C35.7514 25.5781 35.2316 27.5014 34.1695 29.27C33.1073 31.0386 31.6836 32.4313 29.8757 33.4704C28.0678 34.5094 26.1017 35.0179 23.9774 35.0179C21.8531 35.0179 19.887 34.5094 18.0791 33.4704C16.2712 32.4313 14.8475 31.0386 13.7853 29.27C12.7684 27.4793 12.226 25.556 12.226 23.4779ZM16.0678 23.4779C16.0678 25.6444 16.8362 27.4793 18.3955 29.0047C19.9322 30.5301 21.8079 31.3039 24.0226 31.3039C26.2373 31.3039 28.113 30.5301 29.6723 29.0047C31.2316 27.4793 32.0226 25.6444 32.0226 23.4779C32.0226 21.3556 31.2316 19.5428 29.6723 18.0174C28.113 16.5141 26.2373 15.7625 24.0226 15.7625C21.8305 15.7625 19.9548 16.5141 18.4181 18.0174C16.8362 19.5428 16.0678 21.3556 16.0678 23.4779ZM22.0791 40.6773C22.0791 40.1468 22.2599 39.7046 22.6441 39.3509C23.0282 38.9972 23.4802 38.8203 24 38.8203C24.5424 38.8203 25.0169 38.9972 25.3785 39.3509C25.7401 39.7046 25.9209 40.1468 25.9209 40.6773V45.0767C25.9209 45.6072 25.7401 46.0715 25.3559 46.4473C24.9717 46.8231 24.5198 47 24 47C23.4802 47 23.0056 46.8231 22.6441 46.4473C22.2599 46.0715 22.0791 45.6072 22.0791 45.0767V40.6773ZM22.0791 6.4111V1.90122C22.0791 1.39276 22.2599 0.950612 22.6441 0.574789C23.0282 0.198966 23.4802 0 24.0226 0C24.565 0 24.9943 0.176858 25.3785 0.552681C25.7627 0.928504 25.9435 1.37065 25.9435 1.87912V6.4111C25.9435 6.91957 25.7627 7.3396 25.3785 7.69332C24.9943 8.04704 24.5424 8.20179 24.0226 8.20179C23.5028 8.20179 23.0282 8.02493 22.6667 7.69332C22.3051 7.36171 22.0791 6.91957 22.0791 6.4111ZM34.5537 35.5484C34.5537 35.04 34.7345 34.6199 35.0734 34.3104C35.4124 33.9567 35.8418 33.802 36.339 33.802C36.8814 33.802 37.3333 33.9788 37.6949 34.3104L40.9943 37.4718C41.3559 37.8476 41.5367 38.3119 41.5367 38.8203C41.5367 39.3288 41.3559 39.7709 40.9943 40.1246C40.0904 40.81 39.1864 40.81 38.2825 40.1246L35.0734 36.9854C34.7345 36.5875 34.5537 36.1232 34.5537 35.5484ZM34.5537 11.4073C34.5537 10.8547 34.7345 10.4125 35.0734 10.103L38.2825 6.85325C38.6667 6.49953 39.1186 6.32267 39.6158 6.32267C40.1582 6.32267 40.6102 6.49953 40.9717 6.87535C41.3559 7.25118 41.5367 7.69332 41.5367 8.20179C41.5367 8.75447 41.3559 9.21872 40.9943 9.57244L37.6949 12.7338C37.2881 13.0875 36.8362 13.2643 36.339 13.2643C35.8192 13.2643 35.4124 13.0875 35.0734 12.7338C34.7345 12.3801 34.5537 11.9379 34.5537 11.4073ZM39.661 23.4779C39.661 22.9473 39.8418 22.5052 40.2034 22.1072C40.565 21.7535 40.9943 21.5767 41.4915 21.5767H46.0565C46.5763 21.5767 47.0282 21.7756 47.4124 22.1515C47.7966 22.5273 48 22.9694 48 23.4779C48 23.9864 47.7966 24.4285 47.4124 24.8043C47.0282 25.1802 46.5763 25.357 46.0565 25.357H41.4915C40.9717 25.357 40.5198 25.1802 40.1808 24.8043C39.8418 24.4285 39.661 24.0085 39.661 23.4779Z" fill="white"/>
</svg>
