<svg width="48" height="48" viewBox="0 0 48 48" fill="none" xmlns="http://www.w3.org/2000/svg">
<path d="M0 34.0172C0 35.6504 0.392857 37.1566 1.17857 38.5358C1.96429 39.915 3.03571 41.0038 4.39286 41.8023C5.75 42.6008 7.21429 43 8.80357 43H28.1429C29.7321 43 31.2143 42.6008 32.5714 41.8023C33.9286 41.0038 35.0179 39.915 35.8036 38.5358C36.5893 37.1566 37 35.6504 37 34.0172C37 32.8195 36.75 31.6036 36.25 30.3878C37.6071 28.7182 38.2857 26.7039 38.2857 24.3992C38.2857 23.1108 38.0357 21.8768 37.5536 20.6972C37.0714 19.5177 36.3929 18.5196 35.5536 17.6667C34.7143 16.8138 33.7321 16.1242 32.5714 15.6342C31.4107 15.1261 30.1964 14.8902 28.9286 14.8902C26.2857 14.8902 23.9821 15.9427 22 18.0478C20.625 17.2493 19.0179 16.85 17.1786 16.85C14.6607 16.85 12.4464 17.6485 10.5179 19.2273C8.58929 20.8061 7.33929 22.8386 6.80357 25.3066C4.80357 25.7784 3.17857 26.8128 1.91071 28.446C0.642857 30.0793 0 31.9303 0 34.0172ZM3.05357 34.0172C3.05357 32.4928 3.55357 31.1862 4.55357 30.0793C5.55357 28.9723 6.80357 28.3372 8.30357 28.1557L9.19643 28.1012C9.41071 28.1012 9.53571 27.9924 9.53571 27.7746L9.66071 26.7947C9.91071 24.8348 10.75 23.1834 12.1786 21.8768C13.6071 20.5521 15.2857 19.8988 17.1964 19.8988C19.1607 19.8988 20.875 20.5702 22.3214 21.8949C23.7857 23.2197 24.5893 24.8529 24.7679 26.8128L24.8929 27.8653C24.9286 28.0649 25.0536 28.1738 25.2679 28.1738H28.1429C29.7143 28.1738 31.0714 28.7545 32.2143 29.9159C33.3571 31.0774 33.9286 32.4384 33.9286 34.0353C33.9286 35.6867 33.3571 37.084 32.2321 38.2455C31.1071 39.4069 29.7321 39.9876 28.1607 39.9876H8.80357C7.23214 39.9876 5.89286 39.4069 4.75 38.2273C3.625 37.0478 3.05357 35.6504 3.05357 34.0172ZM15.0179 11.7507C15.0179 12.1862 15.1607 12.5673 15.4464 12.894L16.625 14.0554C17.0714 14.4002 17.4464 14.5454 17.7679 14.5091C18.1429 14.5091 18.4643 14.3457 18.75 14.0372C19.0357 13.7287 19.1786 13.3477 19.1786 12.9121C19.1786 12.4766 19.0179 12.1137 18.7143 11.8415L17.6607 10.6437C17.3393 10.3534 16.9821 10.2082 16.5714 10.2082C16.1429 10.2082 15.7679 10.3534 15.4643 10.6619C15.1607 10.9522 15.0179 11.3152 15.0179 11.7507ZM24.5536 19.7899C25.7857 18.574 27.25 17.9752 28.9286 17.9752C30.6964 17.9752 32.1964 18.5922 33.4286 19.8443C34.6607 21.0965 35.2857 22.6027 35.2857 24.3992C35.2857 25.5244 34.9821 26.6495 34.375 27.7383C32.6429 25.9962 30.5714 25.1251 28.1429 25.1251H27.5714C27.125 23.1471 26.125 21.3687 24.5536 19.7899ZM27.4643 10.2082C27.4643 10.68 27.6071 11.043 27.875 11.3333C28.1429 11.6237 28.5 11.7507 28.9286 11.7507C29.3929 11.7507 29.75 11.6055 30.0357 11.3333C30.3214 11.043 30.4464 10.68 30.4464 10.2082V6.48806C30.4464 6.05253 30.3036 5.70774 30.0179 5.41738C29.7321 5.12703 29.375 5 28.9286 5C28.5 5 28.1607 5.14518 27.875 5.41738C27.5893 5.68959 27.4643 6.05253 27.4643 6.48806V10.2082ZM37.3214 14.3639C37.3214 14.8357 37.4464 15.1987 37.7143 15.489C38.0893 15.7794 38.4643 15.9245 38.8214 15.9245C39.1429 15.9245 39.5 15.7794 39.875 15.489L42.4286 12.894C42.7143 12.5673 42.8571 12.1862 42.8571 11.7326C42.8571 11.297 42.7143 10.9341 42.4286 10.6437C42.1429 10.3534 41.7857 10.2082 41.375 10.2082C40.9464 10.2082 40.6071 10.3534 40.3393 10.6437L37.7143 13.2388C37.4464 13.5836 37.3214 13.9465 37.3214 14.3639ZM38.7321 35.85C38.7321 36.2856 38.875 36.6667 39.1786 36.9933L40.3393 38.1366C40.6071 38.4269 40.9464 38.5721 41.375 38.5721C41.8036 38.5721 42.1607 38.4269 42.4464 38.1184C42.7321 37.8099 42.875 37.447 42.875 36.9933C42.875 36.5941 42.7321 36.2311 42.4464 35.9408L41.2857 34.7612C41 34.4709 40.6607 34.3257 40.2679 34.3257C39.8393 34.3257 39.4821 34.4709 39.1964 34.7612C38.8929 35.0516 38.7321 35.4145 38.7321 35.85ZM41.3571 24.3992C41.3571 24.8166 41.5179 25.1614 41.8214 25.4518C42.1071 25.7421 42.4821 25.8873 42.9107 25.8873H46.5536C46.9643 25.8873 47.3036 25.7421 47.5893 25.4699C47.875 25.1977 48 24.8348 48 24.3992C48 23.9637 47.8571 23.6008 47.5893 23.3104C47.3214 23.0201 46.9643 22.8567 46.5536 22.8567H42.9107C42.4821 22.8567 42.125 23.0019 41.8214 23.3104C41.5 23.6189 41.3571 23.9819 41.3571 24.3992Z" fill="white"/>
</svg>
