<svg width="48" height="48" viewBox="0 0 48 48" fill="none" xmlns="http://www.w3.org/2000/svg">
<path d="M0 29.9451C0 27.8358 0.669969 25.9396 2.00991 24.2991C3.34984 22.6586 5.05718 21.5933 7.15353 21.1246C7.71544 18.6318 8.99054 16.5652 11.0004 14.9885C13.0104 13.3906 15.3228 12.6023 17.9595 12.6023C20.5097 12.6023 22.8005 13.3693 24.7888 14.9246C26.7987 16.4799 28.0955 18.4614 28.679 20.8902H29.2625C31.8127 20.8902 33.9739 21.7637 35.7677 23.5321C37.5615 25.3005 38.4692 27.431 38.4692 29.9238C38.4692 32.4379 37.5615 34.5684 35.7677 36.3368C33.9739 38.1052 31.8127 39 29.2625 39H9.22827C7.97478 39 6.78613 38.7656 5.66231 38.2756C4.5385 37.7856 3.52274 37.189 2.70149 36.3794C1.88023 35.5698 1.23188 34.5897 0.734804 33.4818C0.237731 32.3739 0 31.1595 0 29.9451ZM3.13372 29.9451C3.13372 31.5643 3.73886 32.9705 4.9059 34.121C6.07294 35.2715 7.52093 35.8681 9.20666 35.8681H29.2625C30.9266 35.8681 32.3746 35.2928 33.5633 34.121C34.7519 32.9492 35.357 31.5643 35.357 29.9451C35.357 28.3259 34.7735 26.9197 33.5633 25.7692C32.3746 24.6187 30.9482 24.0221 29.2625 24.0221H26.2584C26.0423 24.0221 25.9343 23.9156 25.9343 23.7026L25.783 22.6586C25.5669 20.6558 24.7024 18.9727 23.2112 17.6517C21.7199 16.3308 19.9478 15.6703 17.9163 15.6703C15.8847 15.6703 14.1126 16.3308 12.5997 17.6731C11.0869 18.994 10.244 20.6772 10.0495 22.6586L9.89824 23.5534C9.89824 23.7665 9.79018 23.873 9.55245 23.873L8.57992 24.0221C7.02386 24.15 5.72715 24.7891 4.66817 25.9183C3.67402 27.0475 3.13372 28.3898 3.13372 29.9451ZM22.2602 11.3666C22.0441 11.5583 22.0873 11.7075 22.4115 11.814C23.3408 12.2188 24.1189 12.6023 24.7456 12.9858C24.9833 13.0497 25.1562 13.0284 25.2211 12.9219C26.5394 11.7075 28.0522 11.0896 29.8028 11.0896C31.5534 11.0896 33.0446 11.6649 34.3413 12.8154C35.6164 13.9659 36.3296 15.3934 36.4809 17.0765L36.6754 18.4401H39.7443C41.149 18.4401 42.3593 18.9301 43.3751 19.9315C44.3908 20.9328 44.8879 22.1046 44.8879 23.4682C44.8879 24.7465 44.434 25.8544 43.548 26.8132C42.6619 27.7719 41.5597 28.3046 40.2413 28.4537C40.0252 28.4537 39.9172 28.5602 39.9172 28.7946V31.2021C39.9172 31.4365 40.0252 31.543 40.2413 31.543C42.4241 31.4152 44.2611 30.563 45.7524 29.0077C47.2436 27.4523 48 25.5988 48 23.4682C48 21.2098 47.2004 19.2923 45.5795 17.7157C43.9586 16.1177 42.0135 15.3294 39.7443 15.3294H39.4201C38.8582 13.1989 37.6695 11.4518 35.8541 10.0669C34.0603 8.68208 32.0288 8.0003 29.8028 8.0003C26.7771 7.97899 24.2485 9.10819 22.2602 11.3666Z" fill="white"/>
</svg>
