<svg width="48" height="48" viewBox="0 0 48 48" fill="none" xmlns="http://www.w3.org/2000/svg">
<path d="M0 22.8051C0 25.8285 1.08828 28.4396 3.24168 30.6155C5.39508 32.8143 8.01158 33.9596 11.068 34.0512C11.3459 34.0512 11.4848 33.9137 11.4848 33.6618V30.6155C11.4848 30.3406 11.3459 30.2032 11.068 30.2032C9.12301 30.1116 7.43271 29.3328 6.04342 27.867C4.65412 26.4011 3.93632 24.729 3.93632 22.7822C3.93632 20.8582 4.58466 19.1862 5.90449 17.7661C7.22431 16.346 8.822 15.5443 10.767 15.384L11.9942 15.2237C12.2721 15.2237 12.4342 15.0863 12.4342 14.8114L12.5962 13.6662C12.8278 11.1696 13.8698 9.06238 15.7453 7.36745C17.6208 5.67252 19.8205 4.82505 22.3676 4.82505C24.8683 4.82505 27.068 5.67251 28.9436 7.34454C30.8191 9.01657 31.9074 11.078 32.1852 13.5517L32.3473 14.8801C32.3473 15.155 32.4863 15.2924 32.7873 15.2924H36.492C38.576 15.2924 40.3589 16.0253 41.864 17.5141C43.3459 18.98 44.11 20.7437 44.11 22.7822C44.11 24.7061 43.4153 26.4011 42.026 27.867C40.6368 29.3099 38.9465 30.0887 36.9783 30.2032C36.6773 30.2032 36.5152 30.3406 36.5152 30.6155V33.6618C36.5152 33.9137 36.6773 34.0512 36.9783 34.0512C40.0579 33.9596 42.6744 32.8143 44.8046 30.6155C46.9349 28.4167 48 25.8285 48 22.7822C48 20.7437 47.4906 18.8426 46.4486 17.1019C45.4298 15.3611 44.0174 13.9868 42.2576 12.979C40.4978 11.9712 38.576 11.4673 36.5152 11.4673H35.7974C35.0333 8.39815 33.4124 5.90156 30.9117 3.93177C28.4342 1.98489 25.5861 1 22.3907 1C19.1259 1 16.2315 2.0078 13.7077 4.00049C11.1838 5.99318 9.56295 8.55848 8.84515 11.6735C6.22865 12.3377 4.12156 13.6891 2.47757 15.7276C0.833574 17.7661 0 20.1481 0 22.8051ZM12.5036 38.884C12.5036 39.2734 12.6194 39.6628 12.8741 40.0521C13.1288 40.4415 13.4993 40.6935 13.9624 40.8538C14.4949 41.0141 14.9812 40.9912 15.4443 40.7622C15.8842 40.556 16.2084 40.1209 16.3473 39.4795L16.6715 38.0824C16.7873 37.5556 16.7178 37.0746 16.4631 36.6394C16.2084 36.2042 15.8148 35.8835 15.259 35.7232C14.7496 35.5629 14.2402 35.6316 13.7771 35.9064C13.314 36.1813 12.9899 36.5936 12.8509 37.1204L12.5268 38.4717C12.5268 38.5404 12.5036 38.6779 12.5036 38.884ZM14.2634 32.2417C14.2634 32.7227 14.4486 33.1579 14.8423 33.5473C15.2127 33.9366 15.6295 34.1199 16.1389 34.1199C16.6946 34.1199 17.1577 33.9366 17.5282 33.5702C17.8987 33.2037 18.0839 32.7685 18.0839 32.2188C18.0839 31.692 17.8987 31.2339 17.5282 30.8674C17.1577 30.501 16.6946 30.3177 16.1389 30.3177C15.6064 30.3177 15.1664 30.501 14.7959 30.8445C14.4486 31.2568 14.2634 31.7149 14.2634 32.2417ZM15.6758 27.0424C15.6527 27.4089 15.7453 27.7524 16 28.0731C16.2315 28.4167 16.602 28.6457 17.1114 28.806C17.5977 28.9435 18.0608 28.8977 18.547 28.6457C19.0333 28.3938 19.3343 28.0044 19.4964 27.4776L20.1447 25.4162C20.3068 24.8665 20.2605 24.3626 19.9826 23.9274C19.7048 23.4922 19.288 23.1944 18.7323 23.0341C18.2229 22.8738 17.7366 22.9196 17.2735 23.1944C16.8104 23.4464 16.4863 23.8358 16.3242 24.3397L15.7685 26.4469C15.7685 26.4927 15.7453 26.5843 15.7221 26.7217C15.699 26.8363 15.6758 26.9508 15.6758 27.0424ZM18.3849 46.0302C18.3849 46.4425 18.5007 46.809 18.7323 47.1754C18.9638 47.5419 19.3343 47.7939 19.8437 47.9313C20.0289 47.9771 20.2373 48 20.4226 48C21.4182 48 22.0203 47.5419 22.2518 46.6028L22.576 45.2515C22.7149 44.6559 22.6454 44.152 22.3907 43.694C22.1129 43.2359 21.7192 42.961 21.1867 42.8465C20.7004 42.6862 20.2142 42.732 19.7279 43.0068C19.2417 43.2817 18.9407 43.6711 18.7786 44.175L18.4544 45.5263C18.4081 45.7325 18.3849 45.8928 18.3849 46.0302ZM20.1679 39.3879C20.1679 39.8918 20.3531 40.327 20.7467 40.7164C21.1172 41.0828 21.5572 41.2661 22.0666 41.2661C22.6223 41.2661 23.0622 41.0828 23.4327 40.7393C23.8032 40.3728 23.9653 39.9376 23.9653 39.3879C23.9653 38.8611 23.78 38.4259 23.4327 38.0595C23.0622 37.693 22.6223 37.5326 22.0666 37.5326C21.5109 37.5326 21.0709 37.7159 20.7004 38.0595C20.33 38.403 20.1679 38.8611 20.1679 39.3879ZM21.6266 34.1886C21.6035 34.5322 21.6961 34.8986 21.9276 35.2651C22.1592 35.6316 22.5065 35.8606 22.9696 35.9522C23.5022 36.0897 23.9884 36.0439 24.4515 35.8148C24.9146 35.5858 25.2156 35.1506 25.4009 34.5322L26.026 32.4708C26.1881 31.9669 26.1418 31.4859 25.864 31.0278C25.5861 30.5697 25.1925 30.2719 24.6368 30.1116C24.1273 29.9513 23.6411 30.02 23.1548 30.2948C22.6686 30.5697 22.3676 30.982 22.2055 31.5088L21.6729 33.5702C21.6498 33.7534 21.6266 33.9596 21.6266 34.1886ZM28.0174 39.1131C28.0174 39.4795 28.1331 39.846 28.3647 40.2125C28.5962 40.5789 28.9667 40.8309 29.4298 40.9683C29.4993 40.9683 29.6151 40.9912 29.754 41.0141C29.8929 41.037 29.9855 41.0599 30.0781 41.0599C31.0275 41.0599 31.6064 40.556 31.8379 39.5482L32.1621 38.174C32.3242 37.693 32.2779 37.212 32 36.731C31.7453 36.25 31.3517 35.9522 30.8191 35.7919C30.2402 35.6545 29.7077 35.7003 29.2446 35.9751C28.7815 36.25 28.4573 36.6394 28.2952 37.1891L28.0868 38.5404C28.0868 38.5863 28.0637 38.7008 28.0405 38.8153C28.0174 38.9298 28.0174 39.0214 28.0174 39.1131ZM29.7308 32.3333C29.7308 32.8372 29.9161 33.2953 30.3097 33.6389C30.657 34.0054 31.097 34.1886 31.6295 34.1886C32.1852 34.1886 32.6252 34.0054 32.9957 33.6618C33.3661 33.3182 33.5282 32.8601 33.5282 32.3333C33.5282 31.7836 33.343 31.3484 32.9957 30.982C32.6483 30.6155 32.1852 30.4552 31.6295 30.4552C31.0738 30.4552 30.6339 30.6384 30.2634 30.982C29.9161 31.3484 29.7308 31.7836 29.7308 32.3333ZM31.1433 27.0424C31.1433 27.4318 31.259 27.7982 31.5137 28.1418C31.7685 28.4854 32.1389 28.7373 32.6483 28.8748C32.6946 28.8748 32.7873 28.8977 32.9262 28.9206C33.0651 28.9435 33.1809 28.9664 33.2504 28.9664C33.4819 28.9664 33.7598 28.8977 34.0839 28.7602C34.5702 28.5083 34.8944 28.096 35.0333 27.5692L35.589 25.5078C35.7279 24.981 35.6816 24.5 35.4038 24.0648C35.1491 23.6067 34.7554 23.309 34.2229 23.1486C33.6903 22.9883 33.2041 23.0341 32.741 23.2861C32.301 23.538 31.9768 23.9045 31.8379 24.4542L31.1896 26.5385C31.1896 26.5843 31.1664 26.6759 31.1433 26.8134V27.0424Z" fill="white"/>
</svg>
