<svg width="48" height="48" viewBox="0 0 48 48" fill="none" xmlns="http://www.w3.org/2000/svg">
<path d="M0 22.873C0 20.205 0.811202 17.859 2.45678 15.789C4.10237 13.719 6.21149 12.385 8.80734 11.741C9.52583 8.613 11.1482 6.037 13.6746 4.013C16.2009 1.989 19.098 1 22.366 1C25.5645 1 28.3921 1.989 30.8952 3.944C33.3984 5.899 35.0208 8.429 35.7624 11.511H36.5041C38.5669 11.511 40.4906 12.017 42.2521 13.029C44.0135 14.041 45.4273 15.421 46.4471 17.169C47.4669 18.917 48 20.826 48 22.873C48 25.909 46.9338 28.554 44.7784 30.739C42.6461 32.947 40.027 34.097 36.9445 34.189C36.6432 34.189 36.4809 34.051 36.4809 33.798V30.739C36.4809 30.463 36.6432 30.325 36.9445 30.325C38.9145 30.233 40.6065 29.451 41.9971 27.979C43.3877 26.507 44.0831 24.805 44.0831 22.85C44.0831 20.803 43.3414 19.055 41.8349 17.56C40.3283 16.065 38.5437 15.329 36.4578 15.329H32.7262C32.4481 15.329 32.309 15.191 32.309 14.938L32.1236 13.604C31.8687 11.12 30.7793 9.027 28.902 7.348C27.0015 5.669 24.8228 4.818 22.2965 4.818C19.747 4.818 17.5451 5.669 15.6678 7.371C13.7904 9.073 12.7243 11.166 12.4925 13.696L12.3535 14.846C12.3535 15.122 12.1912 15.283 11.8899 15.283L10.6615 15.444C8.73781 15.605 7.1154 16.387 5.7943 17.836C4.4732 19.285 3.82424 20.941 3.82424 22.873C3.82424 24.828 4.51956 26.53 5.91019 28.002C7.30082 29.474 8.99276 30.233 10.9628 30.348C11.2178 30.348 11.3568 30.486 11.3568 30.762V33.821C11.3568 34.074 11.2178 34.212 10.9628 34.212C7.85707 34.12 5.23805 32.97 3.08257 30.762C1.06615 28.554 0 25.909 0 22.873ZM14.7407 32.234C14.7407 31.728 14.9261 31.268 15.297 30.9C15.6678 30.532 16.1082 30.348 16.6644 30.348C17.1975 30.348 17.661 30.532 18.0319 30.9C18.4027 31.268 18.5881 31.728 18.5881 32.234C18.5881 32.786 18.4027 33.246 18.0319 33.614C17.661 34.005 17.2207 34.189 16.6644 34.189C16.1313 34.189 15.6678 34.005 15.297 33.614C14.9261 33.246 14.7407 32.786 14.7407 32.234ZM14.7407 40.583C14.7407 40.031 14.9261 39.571 15.297 39.203C15.6678 38.858 16.1082 38.674 16.6412 38.674C17.1743 38.674 17.6379 38.858 18.0087 39.203C18.3795 39.571 18.5649 40.008 18.5649 40.56C18.5649 41.112 18.3795 41.549 18.0087 41.917C17.6379 42.285 17.1975 42.446 16.6412 42.446C16.1082 42.446 15.6446 42.262 15.2738 41.917C14.9261 41.572 14.7407 41.112 14.7407 40.583ZM22.1342 36.673C22.1342 36.144 22.3197 35.661 22.7137 35.247C23.0845 34.879 23.5249 34.695 24.0348 34.695C24.5678 34.695 25.0314 34.902 25.4254 35.293C25.8194 35.684 26.028 36.144 26.028 36.673C26.028 37.202 25.8426 37.662 25.4486 38.053C25.0546 38.444 24.591 38.628 24.0348 38.628C23.5017 38.628 23.0613 38.444 22.6905 38.053C22.3197 37.662 22.1342 37.202 22.1342 36.673ZM22.1342 28.347C22.1342 27.818 22.3197 27.358 22.7137 26.967C23.1309 26.599 23.5712 26.415 24.0348 26.415C24.591 26.415 25.0546 26.599 25.4486 26.99C25.8426 27.381 26.028 27.818 26.028 28.37C26.028 28.899 25.8426 29.359 25.4486 29.727C25.0546 30.095 24.591 30.279 24.0348 30.279C23.5017 30.279 23.0613 30.095 22.6905 29.727C22.3197 29.336 22.1342 28.876 22.1342 28.347ZM22.1342 45.091C22.1342 44.562 22.3197 44.102 22.7137 43.688C23.0845 43.32 23.5249 43.136 24.0348 43.136C24.591 43.136 25.0546 43.32 25.4486 43.711C25.8426 44.102 26.028 44.562 26.028 45.091C26.028 45.62 25.8426 46.08 25.4486 46.448C25.0546 46.816 24.591 47 24.0348 47C23.5017 47 23.0613 46.816 22.6905 46.448C22.3197 46.057 22.1342 45.62 22.1342 45.091ZM29.5973 32.234C29.5973 31.728 29.7827 31.291 30.1767 30.9C30.5707 30.509 31.0343 30.325 31.5674 30.325C32.1004 30.325 32.564 30.509 32.9348 30.877C33.3057 31.245 33.4911 31.705 33.4911 32.211C33.4911 32.763 33.3057 33.223 32.9348 33.591C32.564 33.982 32.1236 34.166 31.5674 34.166C31.0111 34.166 30.5476 33.982 30.1767 33.591C29.8059 33.223 29.5973 32.763 29.5973 32.234ZM29.5973 40.583C29.5973 40.077 29.7827 39.617 30.1767 39.203C30.5476 38.858 31.0111 38.674 31.5674 38.674C32.1236 38.674 32.564 38.858 32.9348 39.203C33.3057 39.548 33.4679 40.008 33.4679 40.56C33.4679 41.112 33.2825 41.549 32.9348 41.917C32.564 42.285 32.1236 42.446 31.5674 42.446C31.0111 42.446 30.5476 42.262 30.1767 41.894C29.8059 41.549 29.5973 41.112 29.5973 40.583Z" fill="white"/>
</svg>
